<?xml version="1.0" encoding="utf-8"?>
<!-- Svg Vector Icons : http://www.onlinewebfonts.com/icon -->
<!DOCTYPE svg PUBLIC "-//W3C//DTD SVG 1.1//EN" "http://www.w3.org/Graphics/SVG/1.1/DTD/svg11.dtd">
<svg version="1.1" xmlns="http://www.w3.org/2000/svg" xmlns:xlink="http://www.w3.org/1999/xlink" x="0px" y="0px" viewBox="0 0 256 256" enable-background="new 0 0 256 256" xml:space="preserve">
<metadata> Svg Vector Icons : http://www.onlinewebfonts.com/icon </metadata>
<g><g><g><path fill="#fafafa" d="M113.2,11.2c-12.1,1.6-25.3,5.5-36.5,11C64,28.4,54.4,35.3,44.5,45.3C25.7,64.1,15.3,85,11,112.4c-0.3,2.1-0.6,12.2-0.7,25.9L10,160.8h3.7h3.7v-20c0-11,0.2-22.1,0.5-24.8c1.8-17.5,7.9-34.9,17.5-49.3c11.9-17.8,29.2-32.2,48.9-40.4c23.7-9.8,49.5-11.4,74.3-4.6c25.1,6.9,47.7,23.2,62.1,44.7c7,10.5,13.3,25.4,15.8,37.5c2.3,11.2,2.4,12.6,2.4,72.9c0,63.4,0.3,58.4-3.5,60.1c-3.8,1.7-3.4,1.9-22-16.6c-14.7-14.6-17.1-16.8-17.6-16.2c-0.3,0.4-6,7.8-12.6,16.6c-6.6,8.8-12.3,16.2-12.7,16.6c-1.2,1-4.5,1.2-6.1,0.3c-0.7-0.4-9.1-8.4-18.6-17.8l-17.3-17.1l-17.5,17.5c-15.2,15.1-17.8,17.5-19.2,17.8c-3.5,0.6-4.2,0-17.8-17.8c-7-9-12.8-16.4-13-16.5c-0.2,0-8,7.4-17.3,16.5c-11.4,11.1-17.6,16.8-18.6,17.2c-3,1-7.5-1.8-7.5-4.8c0-0.7-0.5-0.8-3.7-0.8H10l0.3,1.7c0.7,3.9,3.8,8.1,7.4,10c1.4,0.7,2.7,1,5.3,1c5.9,0,6.5-0.5,22.6-16.1c7.7-7.5,14.3-13.6,14.5-13.5c0.3,0.1,4.8,5.8,10.1,12.6c5.3,6.8,10.2,13.1,11,13.9c2.4,2.4,5.6,3.8,8.9,3.8c5.9,0,5.8,0.1,22.6-16.7c8.4-8.3,15.4-15.2,15.6-15.2c0.2,0,7.1,6.6,15.3,14.6c17.1,16.7,18,17.4,23.5,17.4c3.9,0,6.9-1.3,9.5-4.2c0.9-1,5.8-7.2,10.8-13.9c5-6.6,9.3-12.2,9.5-12.4c0.3-0.2,6.8,6,14.6,13.7c15.8,15.8,15.9,15.8,22,15.8c2.4,0,3.7-0.3,5.1-1c2.4-1.2,4.9-3.9,6.3-6.6l1.1-2.1v-58.6c0-63.3,0-62-2.5-73.9C237.1,72.8,218.2,46,192,29.1c-14.9-9.6-32.3-15.9-50-18C135.3,10.3,119.8,10.4,113.2,11.2z"/><path fill="#000000" d="M75.8,95c-4.3,1-7.5,2.9-11.1,6.5c-6.1,6.1-8.1,13.5-5.7,21.2c3.9,12.6,18.6,19.5,30,14c11.7-5.6,16.5-18.3,11.2-29.2C95.7,98.4,85,93,75.8,95z M87.3,103.6c5.4,2.7,7.9,7.3,7.5,14.1c-0.3,5.8-2.8,9.7-7.7,12.1c-2.3,1.2-3.1,1.3-7,1.3s-4.7-0.1-7-1.3c-2.9-1.4-4.9-3.4-6.5-6.5c-1.4-2.7-1.7-8.6-0.6-11.7C68.9,103.1,78.8,99.4,87.3,103.6z"/><path fill="#000000" d="M172.7,94.9c-8.5,1.8-14.9,7.7-17.4,15.9c-1.5,4.8-1.1,10.1,1.2,14.8c4.2,8.9,13.8,14.3,22.7,12.8c13-2.2,21.5-15.7,17.7-28c-1.6-5-5.4-9.9-10.1-12.8C183.1,95.3,176.5,94,172.7,94.9z M182.3,103.1c2.8,1.2,5.3,3.6,6.6,6.3c1.7,3.2,2,9.2,0.8,12.8c-1.2,3.5-5.2,7.4-8.5,8.4c-3.1,0.9-7,0.9-10.1,0c-3.4-1-7.3-4.9-8.5-8.4c-2.4-7,0.1-14.7,5.7-18.2C172,101.6,178.2,101.3,182.3,103.1z"/></g></g></g>
</svg>